<mxfile host="drawio-plugin" modified="2023-08-22T11:52:23.624Z" agent="5.0 (Windows NT 6.2; Win64; x64) AppleWebKit/537.36 (KHTML, like Gecko) Chrome/104.0.5112.102 Safari/537.36" version="20.5.3" etag="m026uSC0oxJcffVPvDVT" type="embed"><diagram id="jxq5XJY4WzQLro1_MvXZ" name="Page-1"><mxGraphModel dx="2031" dy="276" grid="1" gridSize="10" guides="1" tooltips="1" connect="1" arrows="1" fold="1" page="1" pageScale="1" pageWidth="850" pageHeight="1100" math="0" shadow="0"><root><mxCell id="0"/><mxCell id="1" parent="0"/><mxCell id="5" value="" style="edgeStyle=orthogonalEdgeStyle;rounded=0;orthogonalLoop=1;jettySize=auto;html=1;spacing=18;" edge="1" parent="1" source="3" target="4"><mxGeometry relative="1" as="geometry"/></mxCell><mxCell id="3" value="router(用于接收客户端发送过来的请求)" style="rounded=0;whiteSpace=wrap;html=1;spacing=18;" vertex="1" parent="1"><mxGeometry x="-680" y="472.5" width="120" height="60" as="geometry"/></mxCell><mxCell id="9" value="" style="edgeStyle=orthogonalEdgeStyle;rounded=0;orthogonalLoop=1;jettySize=auto;html=1;spacing=18;" edge="1" parent="1" source="4" target="8"><mxGeometry relative="1" as="geometry"/></mxCell><mxCell id="4" value="api(解析出请求携带的数据并将处理好的结果返回客户端)" style="rounded=0;whiteSpace=wrap;html=1;spacing=18;" vertex="1" parent="1"><mxGeometry x="-500" y="472.5" width="120" height="60" as="geometry"/></mxCell><mxCell id="28" value="" style="edgeStyle=orthogonalEdgeStyle;rounded=0;orthogonalLoop=1;jettySize=auto;html=1;spacing=18;" edge="1" parent="1" source="7" target="26"><mxGeometry relative="1" as="geometry"/></mxCell><mxCell id="7" value="videoGrpcClient" style="rounded=0;whiteSpace=wrap;html=1;spacing=18;" vertex="1" parent="1"><mxGeometry x="-150" y="472.5" width="120" height="60" as="geometry"/></mxCell><mxCell id="20" value="" style="edgeStyle=orthogonalEdgeStyle;rounded=0;orthogonalLoop=1;jettySize=auto;html=1;spacing=18;" edge="1" parent="1" source="8" target="7"><mxGeometry relative="1" as="geometry"/></mxCell><mxCell id="8" value="servic(将请求交给不同的GrpcClient)" style="rounded=0;whiteSpace=wrap;html=1;spacing=18;" vertex="1" parent="1"><mxGeometry x="-330" y="455" width="80" height="95" as="geometry"/></mxCell><mxCell id="26" value="videoGrpcServer" style="rounded=0;whiteSpace=wrap;html=1;spacing=18;" vertex="1" parent="1"><mxGeometry x="80" y="460" width="120" height="60" as="geometry"/></mxCell><mxCell id="32" value="user调用方" style="text;html=1;align=center;verticalAlign=middle;resizable=0;points=[];autosize=1;strokeColor=none;fillColor=none;spacing=7;fontSize=26;" vertex="1" parent="1"><mxGeometry x="-400" y="290" width="160" height="50" as="geometry"/></mxCell></root></mxGraphModel></diagram></mxfile>